<?xml version="1.0" encoding="UTF-8" standalone="no"?>
<!-- Generated by IcoMoon.io -->

<svg
   version="1.1"
   width="16"
   height="16"
   viewBox="0 0 16 16"
   id="svg6"
   sodipodi:docname="LyleWriter.svg"
   inkscape:version="1.1.1 (3bf5ae0d25, 2021-09-20)"
   inkscape:export-filename="C:\Users\brian\Desktop\LyleWriter-24.png"
   inkscape:export-xdpi="144"
   inkscape:export-ydpi="144"
   xmlns:inkscape="http://www.inkscape.org/namespaces/inkscape"
   xmlns:sodipodi="http://sodipodi.sourceforge.net/DTD/sodipodi-0.dtd"
   xmlns="http://www.w3.org/2000/svg"
   xmlns:svg="http://www.w3.org/2000/svg">
  <defs
     id="defs10" />
  <sodipodi:namedview
     id="namedview8"
     pagecolor="#ffffff"
     bordercolor="#666666"
     borderopacity="1.0"
     inkscape:pageshadow="2"
     inkscape:pageopacity="0.0"
     inkscape:pagecheckerboard="0"
     showgrid="false"
     inkscape:zoom="70.8125"
     inkscape:cx="8"
     inkscape:cy="4.4977935"
     inkscape:window-width="1920"
     inkscape:window-height="1017"
     inkscape:window-x="-8"
     inkscape:window-y="341"
     inkscape:window-maximized="1"
     inkscape:current-layer="svg6" />
  <path
     style="fill:#f5f5f5;stroke:none;stroke-width:1px;stroke-linecap:butt;stroke-linejoin:miter;stroke-opacity:1;fill-opacity:1"
     d="M 14,2 12.365385,0.36538462 H 9.0384615 L 1.4961801,13.428999 v 0.974847 l 1.1942176,1.194218 H 14.5 V 2.5 Z"
     id="path10684" />
  <path
     id="path2"
     style="fill:#c10323;fill-opacity:1"
     d="M 3 0 C 1.9 0 1 0.9 1 2 L 1 14 C 1 15.1 1.9 16 3 16 L 15 16 L 15 2 L 14 2 L 14 15 L 3.5 15 C 2.671 15 2 14.328 2 13.5 C 2 12.672 2.671 12 3.5 12 L 13 12 L 13 0 L 3 0 z M 3.5 13 C 3.224 13 3 13.224 3 13.5 C 3 13.776 3.224 14 3.5 14 L 3.5019531 14 L 12.998047 14 L 12.998047 13 L 3.5019531 13 L 3.5 13 z " />
  <g
     aria-label="♥"
     id="text7908"
     style="font-size:6.66667px;line-height:1.25"
     transform="matrix(1.5947755,0,0,1.5947755,-1.8110351,-0.50653767)">
    <path
       d="m 4.8737999,1.6047656 q 0.6608076,0 1.038412,0.7649744 0.1367188,0.3027345 0.1432292,0.4622398 h 0.00977 q 0.1139323,-0.527344 0.4134116,-0.8756515 0.3515627,-0.3515627 0.791016,-0.3515627 0.6803389,0 1.0904953,0.7291671 0.1041667,0.2701824 0.1041667,0.5078127 0,0.8138025 -0.6770836,1.5527351 L 6.0652068,6.4615388 H 6.0456755 L 4.2162475,4.2186992 Q 3.6693723,3.5513812 3.6693723,2.8417454 q 0,-0.6868493 0.6477868,-1.0904953 0.2734376,-0.1464845 0.5566408,-0.1464845 z"
       id="path10630" />
  </g>
</svg>
